<svg xmlns="http://www.w3.org/2000/svg" width="1800" height="600" viewBox="0 0 1800 600">
<rect width="100%" height="100%" fill="#FFFFFF"/>
<g font-family="Arial, Helvetica, sans-serif">
<text x="42.0" y="42.0" font-size="25" font-weight="700">A</text>
<text x="80.0" y="42.0" font-size="23" font-weight="600">Certification failure rises sharply</text>
<line x1="114.0" y1="495.0" x2="522.0" y2="495.0" stroke="#D9D9D9" stroke-width="1"/>
<text x="100.0" y="501.0" font-size="16" text-anchor="end" fill="#444444">0</text>
<line x1="114.0" y1="400.0" x2="522.0" y2="400.0" stroke="#D9D9D9" stroke-width="1"/>
<text x="100.0" y="406.0" font-size="16" text-anchor="end" fill="#444444">25</text>
<line x1="114.0" y1="305.0" x2="522.0" y2="305.0" stroke="#D9D9D9" stroke-width="1"/>
<text x="100.0" y="311.0" font-size="16" text-anchor="end" fill="#444444">50</text>
<line x1="114.0" y1="210.0" x2="522.0" y2="210.0" stroke="#D9D9D9" stroke-width="1"/>
<text x="100.0" y="216.0" font-size="16" text-anchor="end" fill="#444444">75</text>
<line x1="114.0" y1="115.0" x2="522.0" y2="115.0" stroke="#D9D9D9" stroke-width="1"/>
<text x="100.0" y="121.0" font-size="16" text-anchor="end" fill="#444444">100</text>
<line x1="114.0" y1="115.0" x2="114.0" y2="495.0" stroke="#333333" stroke-width="1.5"/>
<line x1="114.0" y1="495.0" x2="522.0" y2="495.0" stroke="#333333" stroke-width="1.5"/>
<line x1="114.0" y1="495.0" x2="114.0" y2="502.0" stroke="#333333" stroke-width="1.5"/>
<text x="114.0" y="523.0" font-size="16" text-anchor="middle" fill="#333333">5</text>
<line x1="216.0" y1="495.0" x2="216.0" y2="502.0" stroke="#333333" stroke-width="1.5"/>
<text x="216.0" y="523.0" font-size="16" text-anchor="middle" fill="#333333">10</text>
<line x1="318.0" y1="495.0" x2="318.0" y2="502.0" stroke="#333333" stroke-width="1.5"/>
<text x="318.0" y="523.0" font-size="16" text-anchor="middle" fill="#333333">20</text>
<line x1="420.0" y1="495.0" x2="420.0" y2="502.0" stroke="#333333" stroke-width="1.5"/>
<text x="420.0" y="523.0" font-size="16" text-anchor="middle" fill="#333333">50</text>
<line x1="522.0" y1="495.0" x2="522.0" y2="502.0" stroke="#333333" stroke-width="1.5"/>
<text x="522.0" y="523.0" font-size="16" text-anchor="middle" fill="#333333">100</text>
<text x="318.0" y="552.0" font-size="18" text-anchor="middle">Requested K</text>
<text x="52.0" y="305.0" font-size="17" text-anchor="middle" transform="rotate(-90 52.0 305.0)">Queries / mean (%)</text>
<polyline points="114.0,495.0 216.0,477.3 318.0,424.3 420.0,291.7 522.0,212.2" fill="none" stroke="#0072B2" stroke-width="4" stroke-linejoin="round" stroke-linecap="round"/>
<circle cx="114.0" cy="495.0" r="5.5" fill="#0072B2" stroke="#FFFFFF" stroke-width="1.5"/>
<circle cx="216.0" cy="477.3" r="5.5" fill="#0072B2" stroke="#FFFFFF" stroke-width="1.5"/>
<circle cx="318.0" cy="424.3" r="5.5" fill="#0072B2" stroke="#FFFFFF" stroke-width="1.5"/>
<circle cx="420.0" cy="291.7" r="5.5" fill="#0072B2" stroke="#FFFFFF" stroke-width="1.5"/>
<circle cx="522.0" cy="212.2" r="5.5" fill="#0072B2" stroke="#FFFFFF" stroke-width="1.5"/>
<line x1="120.0" y1="77.0" x2="148.0" y2="77.0" stroke="#0072B2" stroke-width="4" stroke-dasharray="none"/>
<text x="156.0" y="83.0" font-size="15" fill="#333333">TREC-DL 2019</text>
<polyline points="114.0,495.0 216.0,495.0 318.0,438.7 420.0,283.9 522.0,136.1" fill="none" stroke="#D55E00" stroke-width="4" stroke-linejoin="round" stroke-linecap="round"/>
<circle cx="114.0" cy="495.0" r="5.5" fill="#D55E00" stroke="#FFFFFF" stroke-width="1.5"/>
<circle cx="216.0" cy="495.0" r="5.5" fill="#D55E00" stroke="#FFFFFF" stroke-width="1.5"/>
<circle cx="318.0" cy="438.7" r="5.5" fill="#D55E00" stroke="#FFFFFF" stroke-width="1.5"/>
<circle cx="420.0" cy="283.9" r="5.5" fill="#D55E00" stroke="#FFFFFF" stroke-width="1.5"/>
<circle cx="522.0" cy="136.1" r="5.5" fill="#D55E00" stroke="#FFFFFF" stroke-width="1.5"/>
<line x1="262.0" y1="77.0" x2="290.0" y2="77.0" stroke="#D55E00" stroke-width="4" stroke-dasharray="none"/>
<text x="298.0" y="83.0" font-size="15" fill="#333333">TREC-DL 2020</text>
<polyline points="114.0,495.0 216.0,487.2 318.0,432.3 420.0,287.4 522.0,169.8" fill="none" stroke="#222222" stroke-width="4" stroke-linejoin="round" stroke-linecap="round" stroke-dasharray="8 7"/>
<circle cx="114.0" cy="495.0" r="5.5" fill="#222222" stroke="#FFFFFF" stroke-width="1.5"/>
<circle cx="216.0" cy="487.2" r="5.5" fill="#222222" stroke="#FFFFFF" stroke-width="1.5"/>
<circle cx="318.0" cy="432.3" r="5.5" fill="#222222" stroke="#FFFFFF" stroke-width="1.5"/>
<circle cx="420.0" cy="287.4" r="5.5" fill="#222222" stroke="#FFFFFF" stroke-width="1.5"/>
<circle cx="522.0" cy="169.8" r="5.5" fill="#222222" stroke="#FFFFFF" stroke-width="1.5"/>
<line x1="404.0" y1="77.0" x2="432.0" y2="77.0" stroke="#222222" stroke-width="4" stroke-dasharray="8 7"/>
<text x="440.0" y="83.0" font-size="15" fill="#333333">Pooled</text>
<text x="114.0" y="134.0" font-size="14" text-anchor="middle" fill="#666666">new: 0</text>
<text x="216.0" y="134.0" font-size="14" text-anchor="middle" fill="#666666">new: 2</text>
<text x="318.0" y="134.0" font-size="14" text-anchor="middle" fill="#666666">new: 14</text>
<text x="420.0" y="134.0" font-size="14" text-anchor="middle" fill="#666666">new: 37</text>
<text x="522.0" y="134.0" font-size="14" text-anchor="middle" fill="#666666">new: 30</text>
<text x="642.0" y="42.0" font-size="25" font-weight="700">B</text>
<text x="680.0" y="42.0" font-size="23" font-weight="600">Cross-channel evidence thins</text>
<line x1="714.0" y1="495.0" x2="1122.0" y2="495.0" stroke="#D9D9D9" stroke-width="1"/>
<text x="700.0" y="501.0" font-size="16" text-anchor="end" fill="#444444">0</text>
<line x1="714.0" y1="400.0" x2="1122.0" y2="400.0" stroke="#D9D9D9" stroke-width="1"/>
<text x="700.0" y="406.0" font-size="16" text-anchor="end" fill="#444444">25</text>
<line x1="714.0" y1="305.0" x2="1122.0" y2="305.0" stroke="#D9D9D9" stroke-width="1"/>
<text x="700.0" y="311.0" font-size="16" text-anchor="end" fill="#444444">50</text>
<line x1="714.0" y1="210.0" x2="1122.0" y2="210.0" stroke="#D9D9D9" stroke-width="1"/>
<text x="700.0" y="216.0" font-size="16" text-anchor="end" fill="#444444">75</text>
<line x1="714.0" y1="115.0" x2="1122.0" y2="115.0" stroke="#D9D9D9" stroke-width="1"/>
<text x="700.0" y="121.0" font-size="16" text-anchor="end" fill="#444444">100</text>
<line x1="714.0" y1="115.0" x2="714.0" y2="495.0" stroke="#333333" stroke-width="1.5"/>
<line x1="714.0" y1="495.0" x2="1122.0" y2="495.0" stroke="#333333" stroke-width="1.5"/>
<line x1="714.0" y1="495.0" x2="714.0" y2="502.0" stroke="#333333" stroke-width="1.5"/>
<text x="714.0" y="523.0" font-size="16" text-anchor="middle" fill="#333333">5</text>
<line x1="816.0" y1="495.0" x2="816.0" y2="502.0" stroke="#333333" stroke-width="1.5"/>
<text x="816.0" y="523.0" font-size="16" text-anchor="middle" fill="#333333">10</text>
<line x1="918.0" y1="495.0" x2="918.0" y2="502.0" stroke="#333333" stroke-width="1.5"/>
<text x="918.0" y="523.0" font-size="16" text-anchor="middle" fill="#333333">20</text>
<line x1="1020.0" y1="495.0" x2="1020.0" y2="502.0" stroke="#333333" stroke-width="1.5"/>
<text x="1020.0" y="523.0" font-size="16" text-anchor="middle" fill="#333333">50</text>
<line x1="1122.0" y1="495.0" x2="1122.0" y2="502.0" stroke="#333333" stroke-width="1.5"/>
<text x="1122.0" y="523.0" font-size="16" text-anchor="middle" fill="#333333">100</text>
<text x="918.0" y="552.0" font-size="18" text-anchor="middle">Requested K</text>
<text x="652.0" y="305.0" font-size="17" text-anchor="middle" transform="rotate(-90 652.0 305.0)">Queries / mean (%)</text>
<polyline points="714.0,115.0 816.0,118.1 918.0,128.1 1020.0,162.2 1122.0,195.3" fill="none" stroke="#009E73" stroke-width="4" stroke-linejoin="round" stroke-linecap="round"/>
<circle cx="714.0" cy="115.0" r="5.5" fill="#009E73" stroke="#FFFFFF" stroke-width="1.5"/>
<circle cx="816.0" cy="118.1" r="5.5" fill="#009E73" stroke="#FFFFFF" stroke-width="1.5"/>
<circle cx="918.0" cy="128.1" r="5.5" fill="#009E73" stroke="#FFFFFF" stroke-width="1.5"/>
<circle cx="1020.0" cy="162.2" r="5.5" fill="#009E73" stroke="#FFFFFF" stroke-width="1.5"/>
<circle cx="1122.0" cy="195.3" r="5.5" fill="#009E73" stroke="#FFFFFF" stroke-width="1.5"/>
<line x1="720.0" y1="77.0" x2="748.0" y2="77.0" stroke="#009E73" stroke-width="4" stroke-dasharray="none"/>
<text x="756.0" y="83.0" font-size="15" fill="#333333">Dual-seen Top-K</text>
<polyline points="714.0,395.5 816.0,383.0 918.0,383.5 1020.0,386.6 1122.0,388.3" fill="none" stroke="#CC79A7" stroke-width="4" stroke-linejoin="round" stroke-linecap="round" stroke-dasharray="8 7"/>
<circle cx="714.0" cy="395.5" r="5.5" fill="#CC79A7" stroke="#FFFFFF" stroke-width="1.5"/>
<circle cx="816.0" cy="383.0" r="5.5" fill="#CC79A7" stroke="#FFFFFF" stroke-width="1.5"/>
<circle cx="918.0" cy="383.5" r="5.5" fill="#CC79A7" stroke="#FFFFFF" stroke-width="1.5"/>
<circle cx="1020.0" cy="386.6" r="5.5" fill="#CC79A7" stroke="#FFFFFF" stroke-width="1.5"/>
<circle cx="1122.0" cy="388.3" r="5.5" fill="#CC79A7" stroke="#FFFFFF" stroke-width="1.5"/>
<line x1="862.0" y1="77.0" x2="890.0" y2="77.0" stroke="#CC79A7" stroke-width="4" stroke-dasharray="8 7"/>
<text x="898.0" y="83.0" font-size="15" fill="#333333">Prefix overlap</text>
<text x="1242.0" y="42.0" font-size="25" font-weight="700">C</text>
<text x="1280.0" y="42.0" font-size="23" font-weight="600">Judged utility changes with K</text>
<line x1="1314.0" y1="495.0" x2="1722.0" y2="495.0" stroke="#D9D9D9" stroke-width="1"/>
<text x="1300.0" y="501.0" font-size="16" text-anchor="end" fill="#444444">0</text>
<line x1="1314.0" y1="400.0" x2="1722.0" y2="400.0" stroke="#D9D9D9" stroke-width="1"/>
<text x="1300.0" y="406.0" font-size="16" text-anchor="end" fill="#444444">25</text>
<line x1="1314.0" y1="305.0" x2="1722.0" y2="305.0" stroke="#D9D9D9" stroke-width="1"/>
<text x="1300.0" y="311.0" font-size="16" text-anchor="end" fill="#444444">50</text>
<line x1="1314.0" y1="210.0" x2="1722.0" y2="210.0" stroke="#D9D9D9" stroke-width="1"/>
<text x="1300.0" y="216.0" font-size="16" text-anchor="end" fill="#444444">75</text>
<line x1="1314.0" y1="115.0" x2="1722.0" y2="115.0" stroke="#D9D9D9" stroke-width="1"/>
<text x="1300.0" y="121.0" font-size="16" text-anchor="end" fill="#444444">100</text>
<line x1="1314.0" y1="115.0" x2="1314.0" y2="495.0" stroke="#333333" stroke-width="1.5"/>
<line x1="1314.0" y1="495.0" x2="1722.0" y2="495.0" stroke="#333333" stroke-width="1.5"/>
<line x1="1314.0" y1="495.0" x2="1314.0" y2="502.0" stroke="#333333" stroke-width="1.5"/>
<text x="1314.0" y="523.0" font-size="16" text-anchor="middle" fill="#333333">5</text>
<line x1="1416.0" y1="495.0" x2="1416.0" y2="502.0" stroke="#333333" stroke-width="1.5"/>
<text x="1416.0" y="523.0" font-size="16" text-anchor="middle" fill="#333333">10</text>
<line x1="1518.0" y1="495.0" x2="1518.0" y2="502.0" stroke="#333333" stroke-width="1.5"/>
<text x="1518.0" y="523.0" font-size="16" text-anchor="middle" fill="#333333">20</text>
<line x1="1620.0" y1="495.0" x2="1620.0" y2="502.0" stroke="#333333" stroke-width="1.5"/>
<text x="1620.0" y="523.0" font-size="16" text-anchor="middle" fill="#333333">50</text>
<line x1="1722.0" y1="495.0" x2="1722.0" y2="502.0" stroke="#333333" stroke-width="1.5"/>
<text x="1722.0" y="523.0" font-size="16" text-anchor="middle" fill="#333333">100</text>
<text x="1518.0" y="552.0" font-size="18" text-anchor="middle">Requested K</text>
<text x="1252.0" y="305.0" font-size="17" text-anchor="middle" transform="rotate(-90 1252.0 305.0)">Queries / mean (%)</text>
<polyline points="1314.0,454.0 1416.0,423.3 1518.0,382.1 1620.0,313.1 1722.0,268.0" fill="none" stroke="#56B4E9" stroke-width="4" stroke-linejoin="round" stroke-linecap="round"/>
<circle cx="1314.0" cy="454.0" r="5.5" fill="#56B4E9" stroke="#FFFFFF" stroke-width="1.5"/>
<circle cx="1416.0" cy="423.3" r="5.5" fill="#56B4E9" stroke="#FFFFFF" stroke-width="1.5"/>
<circle cx="1518.0" cy="382.1" r="5.5" fill="#56B4E9" stroke="#FFFFFF" stroke-width="1.5"/>
<circle cx="1620.0" cy="313.1" r="5.5" fill="#56B4E9" stroke="#FFFFFF" stroke-width="1.5"/>
<circle cx="1722.0" cy="268.0" r="5.5" fill="#56B4E9" stroke="#FFFFFF" stroke-width="1.5"/>
<line x1="1320.0" y1="77.0" x2="1348.0" y2="77.0" stroke="#56B4E9" stroke-width="4" stroke-dasharray="none"/>
<text x="1356.0" y="83.0" font-size="15" fill="#333333">Judged Recall@K</text>
<polyline points="1314.0,266.3 1416.0,269.0 1518.0,267.9 1620.0,261.2 1722.0,256.0" fill="none" stroke="#E69F00" stroke-width="4" stroke-linejoin="round" stroke-linecap="round" stroke-dasharray="8 7"/>
<circle cx="1314.0" cy="266.3" r="5.5" fill="#E69F00" stroke="#FFFFFF" stroke-width="1.5"/>
<circle cx="1416.0" cy="269.0" r="5.5" fill="#E69F00" stroke="#FFFFFF" stroke-width="1.5"/>
<circle cx="1518.0" cy="267.9" r="5.5" fill="#E69F00" stroke="#FFFFFF" stroke-width="1.5"/>
<circle cx="1620.0" cy="261.2" r="5.5" fill="#E69F00" stroke="#FFFFFF" stroke-width="1.5"/>
<circle cx="1722.0" cy="256.0" r="5.5" fill="#E69F00" stroke="#FFFFFF" stroke-width="1.5"/>
<line x1="1462.0" y1="77.0" x2="1490.0" y2="77.0" stroke="#E69F00" stroke-width="4" stroke-dasharray="8 7"/>
<text x="1498.0" y="83.0" font-size="15" fill="#333333">Judged nDCG@K</text>
</g>
</svg>
